<?xml version="1.0" encoding="UTF-8"?>
<!DOCTYPE svg PUBLIC "-//W3C//DTD SVG 1.1//EN" "http://www.w3.org/Graphics/SVG/1.1/DTD/svg11.dtd">
<!-- Creator: CorelDRAW X7 -->
<svg xmlns="http://www.w3.org/2000/svg" xml:space="preserve" width="148.485mm" height="210mm" version="1.1" style="shape-rendering:geometricPrecision; text-rendering:geometricPrecision; image-rendering:optimizeQuality; fill-rule:evenodd; clip-rule:evenodd"
viewBox="0 0 148 210"
 xmlns:xlink="http://www.w3.org/1999/xlink">
 <defs>
  <style type="text/css">
   <![CDATA[
    .str0 {stroke:black;stroke-width:0.141414}
    .fil0 {fill:black}
    .fil1 {fill:white}
   ]]>
  </style>
 </defs>
 <g id="Layer_x0020_1">
  <metadata id="CorelCorpID_0Corel-Layer"/>
  <rect class="fil0 str0" x="32" y="63" width="84.8485" height="84.8485" rx="12" ry="14"/>
  <path class="fil1" d="M71 132c-3,0 -6,-1 -10,-1 -5,-1 -6,-2 -9,-2 -2,0 -8,1 -8,1 -1,-2 7,-5 10,-5 0,0 1,0 2,1 2,0 4,1 7,1 3,0 5,-1 7,-4 3,-2 4,-5 3,-8 0,-4 -2,-6 -6,-7 -2,-1 -4,-1 -5,-1 -1,0 -2,-1 -2,-3 0,0 1,0 3,-1 3,-1 5,-2 6,-3 3,-2 4,-5 4,-7 0,-2 -1,-4 -3,-5 -2,-1 -4,-1 -7,-1 -2,0 -3,0 -5,1 -2,1 -3,2 -4,2 -1,0 -2,-1 -2,-2 0,-1 1,-2 4,-4 1,-1 3,-2 4,-2 2,-1 5,-2 8,-3 3,-1 6,-1 8,-1 6,0 11,1 15,3 5,2 7,5 7,8 0,5 -3,9 -8,12 3,0 7,2 10,4 3,2 4,5 4,8 0,7 -3,12 -11,15 -6,3 -13,4 -22,4z"/>
 </g>
</svg>
